# xmcd
#
# Track frame offsets:
#	150
#	14908
#	27242
#	42523
#	56965
#	80476
#	97133
#	113935
#	127678
#	139411
#	162084
#	180471
#
# Disc length: 2692 seconds
#
# Revision: 1
# Processed by: cddbd v1.5.2PL0 Copyright (c) Steve Scherf et al.
# Submitted via: audiograbber 1.83.01
#
DISCID=a80a820c
DTITLE=Forgotten Sol - Contradiction
DYEAR=2006
DGENRE=Soul
TTITLE0=When We Walk
TTITLE1=3
TTITLE2=Deep Sea Dive
TTITLE3=The Stink
TTITLE4=Solace (featuring Gatsby)
TTITLE5=History
TTITLE6=Trap Doors
TTITLE7=Labyrinth
TTITLE8=Let's Run
TTITLE9=Obsession
TTITLE10=I.W.C.
TTITLE11=So Much Of Me
EXTD=
EXTT0=
EXTT1=
EXTT2=
EXTT3=
EXTT4=
EXTT5=
EXTT6=
EXTT7=
EXTT8=
EXTT9=
EXTT10=
EXTT11=
PLAYORDER=
